# xmcd
#
# Track frame offsets:
#	183
#	16735
#	31183
#	55413
#	63693
#	96530
#	128200
#	141108
#	157053
#	170153
#	205620
#	223183
#	236095
#	252905
#	271443
#	287150
#	293845
#
# Disc length: 4278 seconds
#
# Revision: 0
# Processed by: cddbd v1.5.2PL0 Copyright (c) Steve Scherf et al.
# Submitted via: EasyCDDAExtractor 16.0.6.1
#
DISCID=1010b411
DTITLE=Άνευ ερμηνευτού - The Classic Experience 1.2
DYEAR=1988
DGENRE=Κλασική
TTITLE0=Fanfare For The Common Man [Copland]
TTITLE1=William Tell Overture [Rossini]
TTITLE2=Ride Of The Valkyries [Wagner]
TTITLE3=Montagues And Capulets From 'romeo And Juliet' Ballet [Prokofiev]
TTITLE4=Night On The Bare Mountain [Mussorgsky]
TTITLE5=Mars From "The Planets", Op.32 [Holst]
TTITLE6=Radetzky March, Op.228 [Strauss, Johann]
TTITLE7=1812 Overture, Op.49 - Finale [Tchaikovsky]
TTITLE8=Symphonic Suite, Op.60 From 'lieutenant Kije'-Troika [Prokofiev]
TTITLE9=The Blue Danube Waltz, Op.314 [Strauss, Johann]
TTITLE10=Sting Quintet In E Major, Op.13 No.5-Minuet [Boccherini]
TTITLE11=Piano Sonata No.11 In A Major, K.331-Turkish Rondo  [Mozart]
TTITLE12=Barcarolle From 'the Tales Of Hoffmann' [Offenbach]
TTITLE13=Sleeping Beauty Ballet, Op.66-Waltz [Tchaikovsky]
TTITLE14=Intermezzo  From "Cavalleria Rusticana" [Mascagni]
TTITLE15=Swan Lake Ballet, Op.20 - Dance Of The Little Swans [Tchaikovsky]
TTITLE16=Pomp and Circumstance March In D Major, Op.39 No.1 [Elgar]
EXTD=
EXTT0=
EXTT1=
EXTT2=
EXTT3=
EXTT4=
EXTT5=
EXTT6=
EXTT7=
EXTT8=
EXTT9=
EXTT10=
EXTT11=
EXTT12=
EXTT13=
EXTT14=
EXTT15=
EXTT16=
PLAYORDER=
